<svg width="20" height="21" viewBox="0 0 20 21" fill="none" xmlns="http://www.w3.org/2000/svg">
<path d="M10 0.333984C4.48 0.333984 0 4.81398 0 10.334C0 15.854 4.48 20.334 10 20.334C15.52 20.334 20 15.854 20 10.334C20 4.81398 15.52 0.333984 10 0.333984ZM14 11.334H11V14.334C11 14.884 10.55 15.334 10 15.334C9.45 15.334 9 14.884 9 14.334V11.334H6C5.45 11.334 5 10.884 5 10.334C5 9.78398 5.45 9.33398 6 9.33398H9V6.33398C9 5.78398 9.45 5.33398 10 5.33398C10.55 5.33398 11 5.78398 11 6.33398V9.33398H14C14.55 9.33398 15 9.78398 15 10.334C15 10.884 14.55 11.334 14 11.334Z" fill="white"/>
</svg>
