<svg width="28" height="28" viewBox="0 0 28 28" fill="none" xmlns="http://www.w3.org/2000/svg">
<path d="M13.9998 0.666992C6.63984 0.666992 0.666504 6.64033 0.666504 14.0003C0.666504 21.3603 6.63984 27.3337 13.9998 27.3337C21.3598 27.3337 27.3332 21.3603 27.3332 14.0003C27.3332 6.64033 21.3598 0.666992 13.9998 0.666992ZM13.9998 20.667C13.2665 20.667 12.6665 20.067 12.6665 19.3337V14.0003C12.6665 13.267 13.2665 12.667 13.9998 12.667C14.7332 12.667 15.3332 13.267 15.3332 14.0003V19.3337C15.3332 20.067 14.7332 20.667 13.9998 20.667ZM15.3332 10.0003H12.6665V7.33366H15.3332V10.0003Z" fill="#00CAF0"/>
</svg>
