<svg width="18" height="18" viewBox="0 0 18 18" fill="none" xmlns="http://www.w3.org/2000/svg">
<path d="M10.125 6.74986H14.6886C14.7025 6.7498 14.716 6.74565 14.7275 6.73792C14.7391 6.73019 14.748 6.71923 14.7533 6.70642C14.7586 6.6936 14.76 6.67951 14.7573 6.66591C14.7546 6.65231 14.748 6.63981 14.7382 6.62998L9.68238 1.57416C9.67255 1.56438 9.66005 1.55773 9.64645 1.55505C9.63285 1.55236 9.61876 1.55375 9.60594 1.55905C9.59313 1.56434 9.58217 1.57331 9.57444 1.58482C9.56671 1.59633 9.56256 1.60986 9.5625 1.62373V6.18736C9.5625 6.33655 9.62176 6.47962 9.72725 6.58511C9.83274 6.6906 9.97582 6.74986 10.125 6.74986ZM9 9.56236C8.68992 9.56236 8.4375 9.78314 8.4375 10.0545V10.6874H9.5625V10.0545C9.5625 9.78314 9.31008 9.56236 9 9.56236Z" fill="#6500E4"/>
<path d="M15.0469 7.875H10.125C9.67745 7.875 9.24822 7.69721 8.93176 7.38074C8.61529 7.06428 8.4375 6.63505 8.4375 6.1875V1.26562C8.4375 1.22833 8.42268 1.19256 8.39631 1.16619C8.36994 1.13982 8.33417 1.125 8.29688 1.125H5.0625C4.46576 1.125 3.89347 1.36205 3.47151 1.78401C3.04955 2.20597 2.8125 2.77826 2.8125 3.375V14.625C2.8125 15.2217 3.04955 15.794 3.47151 16.216C3.89347 16.6379 4.46576 16.875 5.0625 16.875H12.9375C13.5342 16.875 14.1065 16.6379 14.5285 16.216C14.9504 15.794 15.1875 15.2217 15.1875 14.625V8.01562C15.1875 7.97833 15.1727 7.94256 15.1463 7.91619C15.1199 7.88982 15.0842 7.875 15.0469 7.875ZM11.8125 13.5C11.8125 13.7984 11.694 14.0845 11.483 14.2955C11.272 14.5065 10.9859 14.625 10.6875 14.625H7.3125C7.01413 14.625 6.72798 14.5065 6.517 14.2955C6.30603 14.0845 6.1875 13.7984 6.1875 13.5V11.8125C6.1875 11.5141 6.30603 11.228 6.517 11.017C6.72798 10.806 7.01413 10.6875 7.3125 10.6875V10.0547C7.3125 9.16313 8.06941 8.4375 9 8.4375C9.93059 8.4375 10.6875 9.16313 10.6875 10.0547V10.6875C10.9859 10.6875 11.272 10.806 11.483 11.017C11.694 11.228 11.8125 11.5141 11.8125 11.8125V13.5Z" fill="#6500E4"/>
</svg>
