<svg width="16" height="16" viewBox="0 0 16 16" fill="none" xmlns="http://www.w3.org/2000/svg">
<path d="M9.80833 0.167969H2.16667C1.25 0.167969 0.5 0.917969 0.5 1.83464V13.5013C0.5 14.418 1.25 15.168 2.16667 15.168H13.8333C14.75 15.168 15.5 14.418 15.5 13.5013V5.85964C15.5 5.41797 15.325 4.99297 15.0083 4.68464L10.9833 0.659635C10.675 0.342969 10.25 0.167969 9.80833 0.167969ZM4.66667 10.168H11.3333C11.7917 10.168 12.1667 10.543 12.1667 11.0013C12.1667 11.4596 11.7917 11.8346 11.3333 11.8346H4.66667C4.20833 11.8346 3.83333 11.4596 3.83333 11.0013C3.83333 10.543 4.20833 10.168 4.66667 10.168ZM4.66667 6.83464H11.3333C11.7917 6.83464 12.1667 7.20964 12.1667 7.66797C12.1667 8.1263 11.7917 8.5013 11.3333 8.5013H4.66667C4.20833 8.5013 3.83333 8.1263 3.83333 7.66797C3.83333 7.20964 4.20833 6.83464 4.66667 6.83464ZM4.66667 3.5013H8.83333C9.29167 3.5013 9.66667 3.8763 9.66667 4.33464C9.66667 4.79297 9.29167 5.16797 8.83333 5.16797H4.66667C4.20833 5.16797 3.83333 4.79297 3.83333 4.33464C3.83333 3.8763 4.20833 3.5013 4.66667 3.5013Z" fill="#323232"/>
</svg>
