<svg width="18" height="16" viewBox="0 0 18 16" fill="none" xmlns="http://www.w3.org/2000/svg">
<path d="M9.42857 14.2222H1.71429C1.25963 14.2222 0.823593 14.0349 0.502103 13.7015C0.180612 13.3681 0 12.9159 0 12.4444V1.77778C0 0.791111 0.762857 0 1.71429 0H6.85714L8.57143 1.77778H15.4286C15.8832 1.77778 16.3193 1.96508 16.6408 2.29848C16.9622 2.63187 17.1429 3.08406 17.1429 3.55556V6.25778C16.4084 5.66219 15.5038 5.33696 14.5714 5.33333C12.3429 5.33333 10.4571 7.16444 10.4571 9.33333V9.54667C9.85714 10.08 9.42857 10.88 9.42857 11.7333V14.2222ZM18 11.8222V14.9333C18 15.4667 17.4857 16 16.8857 16H12.1714C11.6571 16 11.1429 15.4667 11.1429 14.8444V11.7333C11.1429 11.2 11.6571 10.6667 12.1714 10.6667V9.33333C12.1714 8.08889 13.3714 7.11111 14.5714 7.11111C15.7714 7.11111 16.9714 8.08889 16.9714 9.33333V10.6667C17.4857 10.6667 18 11.2 18 11.8222ZM15.8571 9.33333C15.8571 8.62222 15.2571 8.17778 14.5714 8.17778C13.8857 8.17778 13.2857 8.62222 13.2857 9.33333V10.6667H15.8571V9.33333Z" fill="#6500E4"/>
</svg>
