<svg width="23" height="16" viewBox="0 0 23 16" fill="none" xmlns="http://www.w3.org/2000/svg">
<path d="M9.31781 13.2544C9.22563 13.0694 9.065 13.0506 9 13.0506C8.935 13.0506 8.77437 13.0691 8.68687 13.2441L8.44719 13.7234C8.24813 14.1228 7.665 14.0787 7.52594 13.6581L7 12.0809L6.66844 13.0772C6.48438 13.6291 5.96906 14 5.38719 14H5C4.72375 14 4.5 13.7762 4.5 13.5C4.5 13.2238 4.72375 13 5 13H5.38719C5.53813 13 5.67188 12.9037 5.71969 12.7606L6.28813 11.0531C6.39125 10.7466 6.67688 10.5403 7 10.5403C7.32312 10.5403 7.60875 10.7463 7.71156 11.0531L8.14531 12.3544C8.7625 11.8484 9.83469 12.0513 10.2078 12.7969C10.2669 12.915 10.3794 12.9828 10.5003 12.9925V10.4263L14.5003 6.45469V5H10.25C9.8375 5 9.5 4.6625 9.5 4.25V0H3.25C2.83437 0 2.5 0.334375 2.5 0.75V15.25C2.5 15.6656 2.83437 16 3.25 16H13.75C14.1656 16 14.5 15.6656 14.5 15.25V14L10.5 13.9966C9.99625 13.9869 9.54437 13.7066 9.31781 13.2544ZM14.5 3.80938C14.5 3.6125 14.4219 3.42188 14.2812 3.28125L11.2219 0.21875C11.0813 0.078125 10.8906 0 10.6906 0H10.5V4H14.5V3.80938ZM11.5 10.8425V13H13.6559L18.7084 7.91313L16.5872 5.79187L11.5 10.8425ZM20.2669 5.22906L19.2709 4.23313C18.9603 3.9225 18.4563 3.9225 18.1456 4.23313L17.2941 5.08469L19.4153 7.20594L20.2669 6.35437C20.5778 6.04375 20.5778 5.53969 20.2669 5.22906Z" fill="#6500E4"/>
</svg>
