<svg width="13" height="16" viewBox="0 0 13 16" fill="none" xmlns="http://www.w3.org/2000/svg">
<path fill-rule="evenodd" clip-rule="evenodd" d="M6.03809 0.916992V5.79199C6.03809 6.09036 6.15661 6.37651 6.36759 6.58749C6.57857 6.79847 6.86472 6.91699 7.16309 6.91699H12.0381V14.417C12.0381 14.8148 11.8801 15.1963 11.5987 15.4777C11.3174 15.759 10.9359 15.917 10.5381 15.917H1.53809C1.14026 15.917 0.75873 15.759 0.477426 15.4777C0.196121 15.1963 0.0380859 14.8148 0.0380859 14.417V2.41699C0.0380859 2.01917 0.196121 1.63764 0.477426 1.35633C0.75873 1.07503 1.14026 0.916992 1.53809 0.916992H6.03809ZM5.29634 8.30299C5.1168 9.44528 4.51943 10.4802 3.62009 11.207C2.95484 11.744 3.56309 12.7977 4.36109 12.491C5.4402 12.0754 6.63522 12.0754 7.71434 12.491C8.51234 12.7985 9.12059 11.7447 8.45534 11.207C7.55599 10.4802 6.95862 9.44528 6.77909 8.30299C6.64634 7.45849 5.42909 7.45774 5.29634 8.30299ZM6.03809 10.1442L6.64259 11.1897H5.43509L6.03809 10.1442ZM7.53809 0.949242C7.82224 1.00951 8.08279 1.15099 8.28809 1.35649L11.5986 4.66699C11.8041 4.87229 11.9456 5.13283 12.0058 5.41699H7.53809V0.949242Z" fill="#6500E4"/>
</svg>
