<svg width="18" height="18" viewBox="0 0 18 18" fill="none" xmlns="http://www.w3.org/2000/svg">
<path d="M10.125 1.125V5.0625C10.125 5.51005 10.3028 5.93928 10.6193 6.25574C10.9357 6.57221 11.3649 6.75 11.8125 6.75H15.75V15.1875C15.75 15.6351 15.5722 16.0643 15.2557 16.3807C14.9393 16.6972 14.5101 16.875 14.0625 16.875H9.74588C10.9432 16.0352 11.8043 14.7985 12.1766 13.3843C12.5488 11.97 12.4081 10.4696 11.7794 9.14923C11.1507 7.82883 10.0746 6.77381 8.74208 6.1713C7.40952 5.5688 5.90663 5.45775 4.5 5.85787V2.8125C4.5 2.36495 4.67779 1.93572 4.99426 1.61926C5.31072 1.30279 5.73995 1.125 6.1875 1.125H10.125ZM11.25 1.40625V5.0625C11.25 5.21168 11.3093 5.35476 11.4148 5.46025C11.5202 5.56574 11.6633 5.625 11.8125 5.625H15.4688L11.25 1.40625ZM11.25 11.8125C11.25 13.1552 10.7166 14.4428 9.76723 15.3922C8.81782 16.3416 7.53016 16.875 6.1875 16.875C4.84484 16.875 3.55717 16.3416 2.60777 15.3922C1.65837 14.4428 1.125 13.1552 1.125 11.8125C1.125 10.4698 1.65837 9.18217 2.60777 8.23277C3.55717 7.28337 4.84484 6.75 6.1875 6.75C7.53016 6.75 8.81782 7.28337 9.76723 8.23277C10.7166 9.18217 11.25 10.4698 11.25 11.8125ZM6.75 9.5625C6.75 9.41332 6.69074 9.27024 6.58525 9.16475C6.47976 9.05926 6.33668 9 6.1875 9C6.03832 9 5.89524 9.05926 5.78975 9.16475C5.68426 9.27024 5.625 9.41332 5.625 9.5625V11.25H3.9375C3.78832 11.25 3.64524 11.3093 3.53975 11.4148C3.43426 11.5202 3.375 11.6633 3.375 11.8125C3.375 11.9617 3.43426 12.1048 3.53975 12.2102C3.64524 12.3157 3.78832 12.375 3.9375 12.375H5.625V14.0625C5.625 14.2117 5.68426 14.3548 5.78975 14.4602C5.89524 14.5657 6.03832 14.625 6.1875 14.625C6.33668 14.625 6.47976 14.5657 6.58525 14.4602C6.69074 14.3548 6.75 14.2117 6.75 14.0625V12.375H8.4375C8.58668 12.375 8.72976 12.3157 8.83525 12.2102C8.94074 12.1048 9 11.9617 9 11.8125C9 11.6633 8.94074 11.5202 8.83525 11.4148C8.72976 11.3093 8.58668 11.25 8.4375 11.25H6.75V9.5625Z" fill="#6500E4"/>
</svg>
