<svg width="20" height="13" viewBox="0 0 20 13" fill="none" xmlns="http://www.w3.org/2000/svg">
<path d="M10.113 3.83203C9.44991 3.83203 8.81403 4.09542 8.34519 4.56426C7.87635 5.0331 7.61296 5.66899 7.61296 6.33203C7.61296 6.99507 7.87635 7.63096 8.34519 8.0998C8.81403 8.56864 9.44991 8.83203 10.113 8.83203C10.776 8.83203 11.4119 8.56864 11.8807 8.0998C12.3496 7.63096 12.613 6.99507 12.613 6.33203C12.613 5.66899 12.3496 5.0331 11.8807 4.56426C11.4119 4.09542 10.776 3.83203 10.113 3.83203ZM10.113 10.4987C9.00789 10.4987 7.94808 10.0597 7.16668 9.27831C6.38528 8.49691 5.94629 7.4371 5.94629 6.33203C5.94629 5.22696 6.38528 4.16715 7.16668 3.38575C7.94808 2.60435 9.00789 2.16536 10.113 2.16536C11.218 2.16536 12.2778 2.60435 13.0592 3.38575C13.8406 4.16715 14.2796 5.22696 14.2796 6.33203C14.2796 7.4371 13.8406 8.49691 13.0592 9.27831C12.2778 10.0597 11.218 10.4987 10.113 10.4987ZM10.113 0.0820312C5.94629 0.0820312 2.38796 2.6737 0.946289 6.33203C2.38796 9.99036 5.94629 12.582 10.113 12.582C14.2796 12.582 17.838 9.99036 19.2796 6.33203C17.838 2.6737 14.2796 0.0820312 10.113 0.0820312Z" fill="#6500E4"/>
</svg>
