<svg width="18" height="18" viewBox="0 0 18 18" fill="none" xmlns="http://www.w3.org/2000/svg">
<path d="M17.625 12.75L13.875 16.5L11.25 13.875L12.375 12.75L13.875 14.25L16.5 11.625L17.625 12.75ZM9.75 14.25C9.75 13.125 10.125 12.15 10.8 11.325L8.25 9.75V5.25H9.375V9.15L11.7 10.575C12.45 10.05 13.275 9.75 14.25 9.75C15 9.75 15.75 9.975 16.35 10.275C16.425 9.825 16.5 9.45 16.5 9C16.5 4.875 13.125 1.5 9 1.5C4.875 1.5 1.5 4.875 1.5 9C1.5 13.125 4.875 16.5 9 16.5C9.45 16.5 9.9 16.425 10.275 16.35C9.975 15.75 9.75 15 9.75 14.25Z" fill="#6500E4"/>
</svg>
