<svg width="16" height="12" viewBox="0 0 16 12" fill="none" xmlns="http://www.w3.org/2000/svg">
<path d="M14 1.50195H8L6.9425 0.444453C6.6575 0.159453 6.275 0.00195312 5.8775 0.00195312H2C1.175 0.00195312 0.5075 0.676953 0.5075 1.50195L0.5 10.502C0.5 11.327 1.175 12.002 2 12.002H14C14.825 12.002 15.5 11.327 15.5 10.502V3.00195C15.5 2.17695 14.825 1.50195 14 1.50195ZM4.34 8.46945L3.2825 7.41195C2.99 7.11945 2.99 6.64695 3.2825 6.35445C3.575 6.06195 4.0475 6.06195 4.34 6.35445L4.8725 6.88695L6.995 4.76445C7.2875 4.47195 7.76 4.47195 8.0525 4.76445C8.345 5.05695 8.345 5.52945 8.0525 5.82195L5.3975 8.47695C5.105 8.76195 4.6325 8.76195 4.34 8.46945ZM12.0575 6.75195L12.7175 7.41195C13.01 7.70445 13.01 8.17695 12.7175 8.46945C12.425 8.76195 11.9525 8.76195 11.66 8.46945L11 7.80945L10.34 8.46945C10.0475 8.76195 9.575 8.76195 9.2825 8.46945C8.99 8.17695 8.99 7.70445 9.2825 7.41195L9.9425 6.75195L9.2825 6.09195C8.99 5.79945 8.99 5.32695 9.2825 5.03445C9.575 4.74195 10.0475 4.74195 10.34 5.03445L11 5.69445L11.66 5.03445C11.9525 4.74195 12.425 4.74195 12.7175 5.03445C13.01 5.32695 13.01 5.79945 12.7175 6.09195L12.0575 6.75195Z" fill="#323232"/>
</svg>
