<svg width="18" height="18" viewBox="0 0 18 18" fill="none" xmlns="http://www.w3.org/2000/svg">
<path d="M8.9999 1.7998C9.98294 1.80054 10.9554 2.00257 11.8574 2.39345C12.7594 2.78432 13.5718 3.35577 14.2445 4.07257C14.9173 4.78937 15.4361 5.63634 15.769 6.56128C16.102 7.48623 16.242 8.46955 16.1804 9.45067C16.1189 10.4318 15.857 11.3899 15.4111 12.266C14.9652 13.142 14.3445 13.9175 13.5875 14.5446C12.8304 15.1717 11.953 15.6371 11.0092 15.9122C10.0654 16.1873 9.07533 16.2662 8.0999 16.144V12.5998C8.1 12.2007 7.96744 11.8128 7.72307 11.4973C7.47869 11.1817 7.13636 10.9563 6.7499 10.8565V10.7998C6.74994 10.2207 6.5638 9.65701 6.21898 9.19181C5.87415 8.72661 5.38889 8.3846 4.83484 8.21626C4.28079 8.04791 3.68729 8.06215 3.14195 8.25688C2.59661 8.45161 2.12832 8.8165 1.8062 9.29771C1.76604 8.32795 1.92237 7.36009 2.26578 6.45229C2.6092 5.54449 3.13261 4.71549 3.80457 4.01512C4.47652 3.31475 5.28314 2.75747 6.17595 2.37678C7.06875 1.99608 8.02932 1.79982 8.9999 1.7998ZM8.5499 4.4998C8.43055 4.4998 8.3161 4.54722 8.2317 4.63161C8.14731 4.716 8.0999 4.83046 8.0999 4.9498V9.4498L8.1071 9.53081C8.12606 9.63441 8.18076 9.72808 8.26167 9.7955C8.34258 9.86293 8.44458 9.89984 8.5499 9.89981H11.2499L11.3309 9.8926C11.4416 9.87257 11.5407 9.81183 11.6088 9.72235C11.6769 9.63287 11.7091 9.52114 11.6989 9.40914C11.6887 9.29715 11.637 9.19302 11.5539 9.11726C11.4708 9.0415 11.3624 8.9996 11.2499 8.9998H8.9999V4.9498L8.9927 4.8688C8.97374 4.7652 8.91905 4.67153 8.83814 4.60411C8.75722 4.53668 8.65523 4.49977 8.5499 4.4998ZM2.2499 10.7998V11.6998H1.7999C1.56121 11.6998 1.33229 11.7946 1.16351 11.9634C0.994723 12.1322 0.899902 12.3611 0.899902 12.5998V16.1998C0.899902 16.4385 0.994723 16.6674 1.16351 16.8362C1.33229 17.005 1.56121 17.0998 1.7999 17.0998H6.2999C6.5386 17.0998 6.76752 17.005 6.9363 16.8362C7.10508 16.6674 7.1999 16.4385 7.1999 16.1998V12.5998C7.1999 12.3611 7.10508 12.1322 6.9363 11.9634C6.76752 11.7946 6.5386 11.6998 6.2999 11.6998H5.8499V10.7998C5.8499 10.3224 5.66026 9.86458 5.32269 9.52701C4.98513 9.18945 4.52729 8.9998 4.0499 8.9998C3.57251 8.9998 3.11468 9.18945 2.77711 9.52701C2.43954 9.86458 2.2499 10.3224 2.2499 10.7998ZM3.1499 11.6998V10.7998C3.1499 10.5611 3.24472 10.3322 3.41351 10.1634C3.58229 9.99463 3.81121 9.89981 4.0499 9.89981C4.2886 9.89981 4.51752 9.99463 4.6863 10.1634C4.85508 10.3322 4.9499 10.5611 4.9499 10.7998V11.6998H3.1499ZM4.0499 13.7248C4.22892 13.7248 4.40061 13.7959 4.5272 13.9225C4.65379 14.0491 4.7249 14.2208 4.7249 14.3998C4.7249 14.5788 4.65379 14.7505 4.5272 14.8771C4.40061 15.0037 4.22892 15.0748 4.0499 15.0748C3.87088 15.0748 3.69919 15.0037 3.57261 14.8771C3.44602 14.7505 3.3749 14.5788 3.3749 14.3998C3.3749 14.2208 3.44602 14.0491 3.57261 13.9225C3.69919 13.7959 3.87088 13.7248 4.0499 13.7248Z" fill="#6500E4"/>
</svg>
