<svg width="18" height="18" viewBox="0 0 18 18" fill="none" xmlns="http://www.w3.org/2000/svg">
<path d="M9 1.5C13.1423 1.5 16.5 4.85775 16.5 9C16.5 10.9891 15.7098 12.8968 14.3033 14.3033C12.8968 15.7098 10.9891 16.5 9 16.5C7.01088 16.5 5.10322 15.7098 3.6967 14.3033C2.29018 12.8968 1.5 10.9891 1.5 9L1.503 8.79C1.614 4.74525 4.9275 1.5 9 1.5ZM11.25 10.59C11.0511 10.59 10.8603 10.669 10.7197 10.8097C10.579 10.9503 10.5 11.1411 10.5 11.34V11.3512C10.5 11.5502 10.579 11.7409 10.7197 11.8816C10.8603 12.0222 11.0511 12.1012 11.25 12.1012C11.4489 12.1012 11.6397 12.0222 11.7803 11.8816C11.921 11.7409 12 11.5502 12 11.3512V11.34C12 11.1411 11.921 10.9503 11.7803 10.8097C11.6397 10.669 11.4489 10.59 11.25 10.59ZM11.7802 6.276C11.6396 6.1354 11.4489 6.05641 11.25 6.05641C11.0511 6.05641 10.8604 6.1354 10.7198 6.276L6.21975 10.776C6.08313 10.9175 6.00754 11.1069 6.00924 11.3036C6.01095 11.5002 6.08983 11.6883 6.22889 11.8274C6.36794 11.9664 6.55605 12.0453 6.7527 12.047C6.94935 12.0487 7.1388 11.9731 7.28025 11.8365L11.7802 7.3365C11.9209 7.19585 11.9998 7.00512 11.9998 6.80625C11.9998 6.60738 11.9209 6.41665 11.7802 6.276ZM6.75 6.07875C6.55109 6.07875 6.36032 6.15777 6.21967 6.29842C6.07902 6.43907 6 6.62984 6 6.82875V6.84C6 7.03891 6.07902 7.22968 6.21967 7.37033C6.36032 7.51098 6.55109 7.59 6.75 7.59C6.94891 7.59 7.13968 7.51098 7.28033 7.37033C7.42098 7.22968 7.5 7.03891 7.5 6.84V6.82875C7.5 6.62984 7.42098 6.43907 7.28033 6.29842C7.13968 6.15777 6.94891 6.07875 6.75 6.07875Z" fill="#6500E4"/>
</svg>
