<svg width="17" height="17" viewBox="0 0 17 17" fill="none" xmlns="http://www.w3.org/2000/svg">
<g clip-path="url(#clip0_4302_26516)">
<path d="M14.8478 6.20443H12.1812C11.0745 6.20443 10.1812 5.31109 10.1812 4.20443V1.53776C10.1812 1.16443 9.88782 0.871094 9.51449 0.871094H3.51449C2.78115 0.871094 2.18115 1.47109 2.18115 2.20443V15.5378C2.18115 16.2711 2.78115 16.8711 3.51449 16.8711H14.1812C14.9145 16.8711 15.5145 16.2711 15.5145 15.5378V6.87109C15.5145 6.49776 15.2212 6.20443 14.8478 6.20443ZM6.84782 14.2044H5.51449C5.14115 14.2044 4.84782 13.9111 4.84782 13.5378C4.84782 13.1644 5.14115 12.8711 5.51449 12.8711H6.84782C7.22115 12.8711 7.51449 13.1644 7.51449 13.5378C7.51449 13.9111 7.22115 14.2044 6.84782 14.2044ZM6.84782 11.5378H5.51449C5.14115 11.5378 4.84782 11.2444 4.84782 10.8711C4.84782 10.4978 5.14115 10.2044 5.51449 10.2044H6.84782C7.22115 10.2044 7.51449 10.4978 7.51449 10.8711C7.51449 11.2444 7.22115 11.5378 6.84782 11.5378ZM6.84782 8.87109H5.51449C5.14115 8.87109 4.84782 8.57776 4.84782 8.20443C4.84782 7.83109 5.14115 7.53776 5.51449 7.53776H6.84782C7.22115 7.53776 7.51449 7.83109 7.51449 8.20443C7.51449 8.57776 7.22115 8.87109 6.84782 8.87109ZM12.1812 14.2044H9.51449C9.14115 14.2044 8.84782 13.9111 8.84782 13.5378C8.84782 13.1644 9.14115 12.8711 9.51449 12.8711H12.1812C12.5545 12.8711 12.8478 13.1644 12.8478 13.5378C12.8478 13.9111 12.5545 14.2044 12.1812 14.2044ZM12.1812 11.5378H9.51449C9.14115 11.5378 8.84782 11.2444 8.84782 10.8711C8.84782 10.4978 9.14115 10.2044 9.51449 10.2044H12.1812C12.5545 10.2044 12.8478 10.4978 12.8478 10.8711C12.8478 11.2444 12.5545 11.5378 12.1812 11.5378ZM12.1812 8.87109H9.51449C9.14115 8.87109 8.84782 8.57776 8.84782 8.20443C8.84782 7.83109 9.14115 7.53776 9.51449 7.53776H12.1812C12.5545 7.53776 12.8478 7.83109 12.8478 8.20443C12.8478 8.57776 12.5545 8.87109 12.1812 8.87109ZM11.5145 1.53776V3.53776C11.5145 4.27109 12.1145 4.87109 12.8478 4.87109H14.8478C15.4478 4.87109 15.7412 4.15109 15.3145 3.73776L12.6478 1.07109C12.2345 0.644427 11.5145 0.951094 11.5145 1.53776Z" fill="#6500E4"/>
</g>
<defs>
<clipPath id="clip0_4302_26516">
<rect width="16" height="16" fill="white" transform="translate(0.847656 0.871094)"/>
</clipPath>
</defs>
</svg>
