<svg width="18" height="18" viewBox="0 0 18 18" fill="none" xmlns="http://www.w3.org/2000/svg">
<g clip-path="url(#clip0_4294_14933)">
<path d="M15.75 3H2.25C1.425 3 0.75 3.675 0.75 4.5V14.25C0.75 15.075 1.425 15.75 2.25 15.75H15.75C16.575 15.75 17.25 15.075 17.25 14.25V4.5C17.25 3.675 16.575 3 15.75 3ZM15.75 13.5C15.75 13.9125 15.4125 14.25 15 14.25H9V4.5H15C15.4125 4.5 15.75 4.8375 15.75 5.25V13.5ZM14.4375 7.125H10.3125C10.005 7.125 9.75 7.38 9.75 7.6875C9.75 7.995 10.005 8.25 10.3125 8.25H14.4375C14.745 8.25 15 7.995 15 7.6875C15 7.38 14.745 7.125 14.4375 7.125ZM14.4375 9H10.3125C10.005 9 9.75 9.255 9.75 9.5625C9.75 9.87 10.005 10.125 10.3125 10.125H14.4375C14.745 10.125 15 9.87 15 9.5625C15 9.255 14.745 9 14.4375 9ZM14.4375 10.875H10.3125C10.005 10.875 9.75 11.13 9.75 11.4375C9.75 11.745 10.005 12 10.3125 12H14.4375C14.745 12 15 11.745 15 11.4375C15 11.13 14.745 10.875 14.4375 10.875Z" fill="#6500E4"/>
</g>
<defs>
<clipPath id="clip0_4294_14933">
<rect width="18" height="18" fill="white"/>
</clipPath>
</defs>
</svg>
